<svg width="201" height="215" viewBox="0 0 201 215" fill="none" xmlns="http://www.w3.org/2000/svg">
<path d="M78 91L78 155" stroke="black" stroke-width="20" stroke-linecap="round"/>
<path d="M124 91L124 155" stroke="black" stroke-width="20" stroke-linecap="round"/>
<path d="M90.75 10.5C79.7043 10.5 70.75 19.4543 70.75 30.5V41H130.75V30.5C130.75 19.4543 121.796 10.5 110.75 10.5H100.75H90.75Z" fill="black"/>
<path d="M70.75 41H10.75L30.5 42V185C30.5 196.046 39.4543 205 50.5 205H100.75H151C162.046 205 171 196.046 171 185V42L190.75 41H130.75M70.75 41V30.5C70.75 19.4543 79.7043 10.5 90.75 10.5H100.75H110.75C121.796 10.5 130.75 19.4543 130.75 30.5V41M70.75 41H130.75" stroke="black" stroke-width="20" stroke-linejoin="round"/>
</svg>
