<svg width="210" height="235" viewBox="0 0 210 235" fill="none" xmlns="http://www.w3.org/2000/svg">
<path fill-rule="evenodd" clip-rule="evenodd" d="M47 35H20C8.9543 35 0 43.9543 0 55V215C0 226.046 8.95431 235 20 235H140C151.046 235 160 226.046 160 215V203H140V215H20V55H47V35Z" fill="black"/>
<path d="M70 190H190C195.523 190 200 185.523 200 180V90.1099V20C200 14.4772 195.523 10 190 10H130H70C64.4772 10 60 14.4772 60 20V180C60 185.523 64.4772 190 70 190Z" stroke="black" stroke-width="20" stroke-linejoin="round"/>
</svg>
