<svg width="235" height="235" viewBox="0 0 235 235" fill="none" xmlns="http://www.w3.org/2000/svg">
<g clip-path="url(#clip0_409_47)">
<path d="M68.5417 9.79167C68.5417 15.2065 64.155 19.5833 58.75 19.5833H48.9583C32.7629 19.5833 19.5833 32.7629 19.5833 48.9583V58.75C19.5833 64.1648 15.1967 68.5417 9.79167 68.5417C4.38667 68.5417 0 64.1648 0 58.75V48.9583C0 21.9627 21.9627 0 48.9583 0H58.75C64.155 0 68.5417 4.37688 68.5417 9.79167ZM9.79167 146.875C15.1967 146.875 19.5833 142.498 19.5833 137.083V97.9167C19.5833 92.5019 15.1967 88.125 9.79167 88.125C4.38667 88.125 0 92.5019 0 97.9167V137.083C0 142.498 4.38667 146.875 9.79167 146.875ZM58.75 215.417H48.9583C32.7629 215.417 19.5833 202.237 19.5833 186.042V176.25C19.5833 170.835 15.1967 166.458 9.79167 166.458C4.38667 166.458 0 170.835 0 176.25V186.042C0 213.037 21.9627 235 48.9583 235H58.75C64.155 235 68.5417 230.623 68.5417 225.208C68.5417 219.794 64.155 215.417 58.75 215.417ZM225.208 166.458C219.803 166.458 215.417 170.835 215.417 176.25V186.042C215.417 202.237 202.237 215.417 186.042 215.417H176.25C170.845 215.417 166.458 219.794 166.458 225.208C166.458 230.623 170.845 235 176.25 235H186.042C213.037 235 235 213.037 235 186.042V176.25C235 170.835 230.613 166.458 225.208 166.458ZM225.208 88.125C219.803 88.125 215.417 92.5019 215.417 97.9167V137.083C215.417 142.498 219.803 146.875 225.208 146.875C230.613 146.875 235 142.498 235 137.083V97.9167C235 92.5019 230.613 88.125 225.208 88.125ZM186.042 0H176.25C170.845 0 166.458 4.37688 166.458 9.79167C166.458 15.2065 170.845 19.5833 176.25 19.5833H186.042C202.237 19.5833 215.417 32.7629 215.417 48.9583V58.75C215.417 64.1648 219.803 68.5417 225.208 68.5417C230.613 68.5417 235 64.1648 235 58.75V48.9583C235 21.9627 213.037 0 186.042 0ZM137.083 0H97.9167C92.5117 0 88.125 4.37688 88.125 9.79167C88.125 15.2065 92.5117 19.5833 97.9167 19.5833H137.083C142.488 19.5833 146.875 15.2065 146.875 9.79167C146.875 4.37688 142.488 0 137.083 0ZM137.083 215.417H97.9167C92.5117 215.417 88.125 219.794 88.125 225.208C88.125 230.623 92.5117 235 97.9167 235H137.083C142.488 235 146.875 230.623 146.875 225.208C146.875 219.794 142.488 215.417 137.083 215.417Z" fill="black"/>
</g>
<path d="M184.875 71.5625C184.875 66.4884 180.762 62.375 175.688 62.375H152.559C148.689 51.3951 138.329 44.0373 126.687 44H108.312C96.6705 44.0373 86.3107 51.3951 82.4405 62.375H59.3124C54.2383 62.375 50.1249 66.4884 50.1249 71.5625C50.1249 76.6366 54.2383 80.75 59.3124 80.75H62.375V157.313C62.375 175.918 77.4574 191 96.0624 191H138.937C157.543 191 172.625 175.918 172.625 157.313V80.75H175.688C180.762 80.75 184.875 76.6366 184.875 71.5625ZM154.25 157.313C154.25 165.769 147.394 172.625 138.938 172.625H96.0624C87.6056 172.625 80.75 165.769 80.75 157.313V80.75H154.25V157.313Z" fill="black"/>
<path d="M102.188 154.25C107.262 154.25 111.375 150.137 111.375 145.062V108.312C111.375 103.238 107.262 99.125 102.188 99.125C97.1135 99.125 93.0001 103.238 93.0001 108.312V145.062C93.0001 150.137 97.1135 154.25 102.188 154.25Z" fill="black"/>
<path d="M132.812 154.25C137.886 154.25 142 150.137 142 145.062V108.312C142 103.238 137.886 99.125 132.812 99.125C127.738 99.125 123.625 103.238 123.625 108.312V145.062C123.625 150.137 127.738 154.25 132.812 154.25Z" fill="black"/>
<defs>
<clipPath id="clip0_409_47">
<rect width="235" height="235" fill="white"/>
</clipPath>
</defs>
</svg>
