<svg width="235" height="235" viewBox="0 0 235 235" fill="none" xmlns="http://www.w3.org/2000/svg">
<path d="M37 36L199 198" stroke="black" stroke-width="10" stroke-linecap="round" stroke-dasharray="30 30"/>
<path fill-rule="evenodd" clip-rule="evenodd" d="M195 80C217.091 80 235 62.0914 235 40C235 17.9086 217.091 0 195 0C172.909 0 155 17.9086 155 40C155 47.6786 157.164 54.8519 160.914 60.9434L118 103.858L132.142 118L175.314 74.8283C181.126 78.1206 187.843 80 195 80ZM40 235C62.0914 235 80 217.091 80 195C80 187.843 78.1206 181.126 74.8283 175.314L118 132.142L103.858 118L60.9434 160.914C54.8519 157.164 47.6786 155 40 155C17.9086 155 0 172.909 0 195C0 217.091 17.9086 235 40 235ZM195 60C206.046 60 215 51.0457 215 40C215 28.9543 206.046 20 195 20C183.954 20 175 28.9543 175 40C175 51.0457 183.954 60 195 60ZM40 215C51.0457 215 60 206.046 60 195C60 183.954 51.0457 175 40 175C28.9543 175 20 183.954 20 195C20 206.046 28.9543 215 40 215Z" fill="black"/>
</svg>
