<svg width="160" height="160" viewBox="0 0 160 160" fill="none" xmlns="http://www.w3.org/2000/svg">
<path fill-rule="evenodd" clip-rule="evenodd" d="M62.8667 48.7333C65.2667 44.1333 66.6667 38.9 66.6667 33.3333C66.6667 14.9333 51.7333 5.53678e-06 33.3333 5.53678e-06C14.9333 5.53678e-06 0 14.9333 0 33.3333C0 48.2667 9.8 60.9 23.3333 65.1333V94.8667C9.8 99.1 0 111.733 0 126.667C0 145.067 14.9333 160 33.3333 160C48.2667 160 60.9 150.2 65.1333 136.667H94.8667C99.1 150.2 111.733 160 126.667 160C145.067 160 160 145.067 160 126.667C160 108.267 145.067 93.3333 126.667 93.3333C126.362 93.3333 126.059 93.3374 125.756 93.3456C120.53 93.486 115.615 94.8331 111.267 97.1333L111.239 97.1057L94.1333 80L111.267 62.8667C115.867 65.2667 121.1 66.6667 126.667 66.6667C145.067 66.6667 160 51.7333 160 33.3333C160 14.9333 145.067 -8.0429e-07 126.667 0C108.267 8.0429e-07 93.3333 14.9333 93.3333 33.3333C93.3333 38.9 94.7 44.1333 97.1333 48.7333L80 65.8667L62.8667 48.7333ZM43.3333 65.1333V94.8667C45.2193 95.4566 47.0327 96.2097 48.7573 97.1094L65.8667 80L48.7333 62.8667C47 63.7667 45.2 64.5333 43.3333 65.1333ZM46.6667 33.3333C46.6667 25.9667 40.7 20 33.3333 20C25.9667 20 20 25.9667 20 33.3333C20 40.7 25.9667 46.6667 33.3333 46.6667C40.7 46.6667 46.6667 40.7 46.6667 33.3333ZM20 126.667C20 134.033 25.9667 140 33.3333 140C40.7 140 46.6667 134.033 46.6667 126.667C46.6667 119.3 40.7 113.333 33.3333 113.333C25.9667 113.333 20 119.3 20 126.667ZM113.333 126.667C113.333 134.033 119.3 140 126.667 140C134.033 140 140 134.033 140 126.667C140 119.3 134.033 113.333 126.667 113.333C119.3 113.333 113.333 119.3 113.333 126.667ZM65.1333 116.667H94.8667C95.4566 114.781 96.2097 112.967 97.1094 111.243L80 94.1333L62.8667 111.267C63.7667 113 64.5333 114.8 65.1333 116.667ZM126.667 46.6667C134.033 46.6667 140 40.7 140 33.3333C140 25.9667 134.033 20 126.667 20C119.3 20 113.333 25.9667 113.333 33.3333C113.333 40.7 119.3 46.6667 126.667 46.6667Z" fill="#448361"/>
</svg>
