<svg width="321" height="335" viewBox="0 0 321 335" fill="none" xmlns="http://www.w3.org/2000/svg">
<path d="M275.714 43.4915C271.364 44.2004 267.344 45.7862 263.732 47.9867C261.615 30.0034 246.274 16 227.732 16C219.672 16 212.304 18.718 206.326 23.1618C200.5 10.986 188.145 2.5 173.732 2.5C155.19 2.5 139.849 16.5034 137.731 34.4867C134.12 32.2862 130.1 30.7004 125.75 29.9915L125.739 29.9898C115.159 28.3132 104.389 31.2148 96.2563 38.1412C88.1375 45.0421 83.4819 55.1074 83.4819 65.7635V203.695L63.3684 187.703C48.7767 174.144 25.8922 174.919 12.2678 189.499C-1.36902 204.092 -0.628115 227.074 13.8701 240.672C13.8746 240.676 13.8791 240.681 13.8835 240.685L59.1366 284.319L59.1368 284.319C90.7066 314.752 132.233 331.513 176.081 331.513H207.833C268.573 331.513 317.982 282.105 317.982 221.364V79.2635C317.982 68.6223 313.327 58.544 305.209 51.6428C297.079 44.7171 286.334 41.7986 275.722 43.4902L275.714 43.4915ZM26.6297 227.273L26.6169 227.261L26.6038 227.249C19.457 220.552 19.09 209.267 25.7751 202.12L25.7756 202.12C29.0019 198.669 33.3755 196.684 38.095 196.513C42.9634 196.435 47.3525 198.033 51.2193 201.623L51.2888 201.688L51.363 201.747L86.9625 230.097L86.9645 230.099C89.7403 232.305 93.5356 232.763 96.7543 231.186C99.9516 229.647 101.982 226.411 101.982 222.863V65.7635C101.982 60.5587 104.264 55.6243 108.244 52.2367C112.271 48.812 117.427 47.406 122.789 48.265C130.984 49.595 137.495 57.6073 137.495 67.208V146.764C137.495 151.87 141.639 156.014 146.745 156.014C151.852 156.014 155.995 151.87 155.995 146.764V38.7635C155.995 28.9797 163.962 21.0135 173.745 21.0135C183.529 21.0135 191.495 28.9797 191.495 38.7635V146.764C191.495 151.87 195.639 156.014 200.745 156.014C205.852 156.014 209.995 151.87 209.995 146.764V52.2635C209.995 42.4797 217.962 34.5135 227.745 34.5135C237.529 34.5135 245.495 42.4797 245.495 52.2635V146.764C245.495 151.87 249.639 156.014 254.745 156.014C259.852 156.014 263.995 151.87 263.995 146.764V80.708C263.995 71.1043 270.497 63.0937 278.69 61.7648L278.694 61.764C284.07 60.882 289.199 62.306 293.234 65.7374C297.214 69.125 299.495 74.0591 299.495 79.2635L299.482 221.364C299.482 271.905 258.373 313.013 207.833 313.013H176.081C137.052 313.013 100.076 298.091 71.976 271L26.6297 227.273Z" fill="black" stroke="black" stroke-width="5"/>
</svg>
