<svg width="238" height="167" viewBox="0 0 238 167" fill="none" xmlns="http://www.w3.org/2000/svg">
<path d="M35.5291 77.8599C38.1939 69.599 45.8831 64 54.5632 64H207.534C221.103 64 230.734 77.2258 226.568 90.1401L209.471 143.14C206.806 151.401 199.117 157 190.437 157H37.4664C23.8969 157 14.2664 143.774 18.4323 130.86L35.5291 77.8599Z" stroke="black" stroke-width="20"/>
<path fill-rule="evenodd" clip-rule="evenodd" d="M20 27.6772C20 23.4372 23.4372 20 27.6772 20H97.5352C98.1351 29.8634 106.324 37.6772 116.339 37.6772H185C190.523 37.6772 195 42.1544 195 47.6772V64H207.534C210.199 64 212.713 64.5104 215 65.4286V47.6772C215 31.1087 201.569 17.6772 185 17.6772H117.465C116.865 7.81385 108.676 0 98.6614 0H27.6772C12.3915 0 0 12.3915 0 27.6772V137C0 153.569 13.4315 167 30 167H185C201.569 167 215 153.569 215 137V126L209.471 143.14C206.806 151.401 199.117 157 190.437 157H37.4664C23.8969 157 14.2664 143.774 18.4323 130.86L20 126V27.6772Z" fill="black"/>
</svg>
