<svg width="247" height="224" viewBox="0 0 247 224" fill="none" xmlns="http://www.w3.org/2000/svg">
<path d="M17.7651 108.634L0.330948 163.674L56.7139 151.252L17.7651 108.634ZM123.355 208.765C82.8804 208.855 47.9377 184.975 31.9846 150.48L22.9083 154.678C40.44 192.586 78.854 218.864 123.377 218.765L123.355 208.765ZM215.65 147.375C200.462 183.38 164.875 208.672 123.355 208.765L123.377 218.765C169.051 218.663 208.171 190.833 224.864 151.262L215.65 147.375Z" fill="black"/>
<path d="M229.801 152.414C231.909 147.309 229.481 141.462 224.376 139.354C219.271 137.245 213.424 139.674 211.316 144.778L229.801 152.414ZM123.344 203.765C81.918 203.857 46.578 177.517 33.3377 140.607L14.5123 147.359C30.5184 191.98 73.2403 223.877 123.389 223.765L123.344 203.765ZM211.316 144.778C197.037 179.346 163.038 203.676 123.344 203.765L123.389 223.765C171.442 223.658 212.545 194.189 229.801 152.414L211.316 144.778Z" fill="black"/>
<path d="M228.605 115.366L246.039 60.3259L189.656 72.7474L228.605 115.366ZM123.015 15.2347C163.49 15.1445 198.433 39.025 214.386 73.5197L223.462 69.322C205.93 31.414 167.516 5.13546 122.993 5.23476L123.015 15.2347ZM30.7205 76.6245C45.9086 40.6198 81.4951 15.3273 123.015 15.2347L122.993 5.23476C77.3195 5.33663 38.1992 33.1668 21.5067 72.7378L30.7205 76.6245Z" fill="black"/>
<path d="M16.5693 71.5863C14.4608 76.6908 16.8896 82.5381 21.9941 84.6466C27.0987 86.7551 32.946 84.3263 35.0544 79.2218L16.5693 71.5863ZM123.026 20.2353C164.452 20.1429 199.792 46.4832 213.032 83.3938L231.858 76.6408C215.852 32.0199 173.13 0.123472 122.982 0.235321L123.026 20.2353ZM35.0544 79.2218C49.333 44.6539 83.3318 20.3238 123.026 20.2353L122.982 0.235321C74.9279 0.342498 33.8247 29.8117 16.5693 71.5863L35.0544 79.2218Z" fill="black"/>
</svg>
