<svg width="235" height="235" viewBox="0 0 235 235" fill="none" xmlns="http://www.w3.org/2000/svg">
<path d="M169.857 200H180C191.046 200 200 191.046 200 180V62.1632C200 56.8589 197.893 51.7718 194.142 48.0211L161.922 15.8005C158.208 12.0865 153.17 10 147.918 10M169.857 200V130.647C169.857 119.601 160.903 110.647 149.857 110.647H60.1426C49.0969 110.647 40.1426 119.601 40.1426 130.647V200M169.857 200H40.1426M40.1426 200H30C18.9543 200 10 191.046 10 180V30C10 18.9543 18.9543 10 30 10H62.0821M62.0821 10H147.918M62.0821 10V42.7161C62.0821 53.7618 71.0364 62.7161 82.0821 62.7161H127.918C138.964 62.7161 147.918 53.7618 147.918 42.7162V10M35 201V205C35 216.046 43.9543 225 55 225H205C216.046 225 225 216.046 225 205V98.8789C225 87.8332 216.046 78.8789 205 78.8789H194.857" stroke="black" stroke-width="20"/>
</svg>
