<svg width="235" height="235" viewBox="0 0 235 235" fill="none" xmlns="http://www.w3.org/2000/svg">
<path d="M190.891 225H205C216.046 225 225 216.046 225 205V67.9367C225 62.6324 222.893 57.5453 219.142 53.7946L181.205 15.8579C177.455 12.1071 172.368 10 167.063 10H166.065M190.891 225H117.5H44.1087M190.891 225V143.89C190.891 132.844 181.937 123.89 170.891 123.89H64.1087C53.0631 123.89 44.1087 132.844 44.1087 143.89V225M44.1087 225H30C18.9543 225 10 216.046 10 205V30C10 18.9543 18.9543 10 30 10H68.935M68.935 10H166.065M68.935 10V49.6525C68.935 60.6982 77.8893 69.6525 88.935 69.6525H146.065C157.111 69.6525 166.065 60.6982 166.065 49.6525V10" stroke="black" stroke-width="20"/>
</svg>
