<svg width="245" height="245" viewBox="0 0 245 245" fill="none" xmlns="http://www.w3.org/2000/svg">
<g clip-path="url(#clip0_2538_2)">
<path d="M71.4587 10.2084C71.4587 15.8536 66.8853 20.4168 61.2503 20.4168H51.0419C34.1573 20.4168 20.4168 34.1573 20.4168 51.0419V61.2503C20.4168 66.8955 15.8434 71.4587 10.2084 71.4587C4.57336 71.4587 0 66.8955 0 61.2503V51.0419C0 22.8974 22.8974 0 51.0419 0H61.2503C66.8853 0 71.4587 4.56315 71.4587 10.2084ZM10.2084 153.126C15.8434 153.126 20.4168 148.563 20.4168 142.917V102.084C20.4168 96.4386 15.8434 91.8755 10.2084 91.8755C4.57336 91.8755 0 96.4386 0 102.084V142.917C0 148.563 4.57336 153.126 10.2084 153.126ZM61.2503 224.584H51.0419C34.1573 224.584 20.4168 210.844 20.4168 193.959V183.751C20.4168 178.106 15.8434 173.543 10.2084 173.543C4.57336 173.543 0 178.106 0 183.751V193.959C0 222.104 22.8974 245.001 51.0419 245.001H61.2503C66.8853 245.001 71.4587 240.438 71.4587 234.793C71.4587 229.148 66.8853 224.584 61.2503 224.584ZM234.793 173.543C229.158 173.543 224.584 178.106 224.584 183.751V193.959C224.584 210.844 210.844 224.584 193.959 224.584H183.751C178.116 224.584 173.543 229.148 173.543 234.793C173.543 240.438 178.116 245.001 183.751 245.001H193.959C222.104 245.001 245.001 222.104 245.001 193.959V183.751C245.001 178.106 240.428 173.543 234.793 173.543ZM234.793 91.8755C229.158 91.8755 224.584 96.4386 224.584 102.084V142.917C224.584 148.563 229.158 153.126 234.793 153.126C240.428 153.126 245.001 148.563 245.001 142.917V102.084C245.001 96.4386 240.428 91.8755 234.793 91.8755ZM193.959 0H183.751C178.116 0 173.543 4.56315 173.543 10.2084C173.543 15.8536 178.116 20.4168 183.751 20.4168H193.959C210.844 20.4168 224.584 34.1573 224.584 51.0419V61.2503C224.584 66.8955 229.158 71.4587 234.793 71.4587C240.428 71.4587 245.001 66.8955 245.001 61.2503V51.0419C245.001 22.8974 222.104 0 193.959 0ZM142.917 0H102.084C96.4488 0 91.8755 4.56315 91.8755 10.2084C91.8755 15.8536 96.4488 20.4168 102.084 20.4168H142.917C148.552 20.4168 153.126 15.8536 153.126 10.2084C153.126 4.56315 148.552 0 142.917 0ZM142.917 224.584H102.084C96.4488 224.584 91.8755 229.148 91.8755 234.793C91.8755 240.438 96.4488 245.001 102.084 245.001H142.917C148.552 245.001 153.126 240.438 153.126 234.793C153.126 229.148 148.552 224.584 142.917 224.584Z" fill="black"/>
</g>
<path d="M88.5294 65C68.4753 76.6239 55 98.2245 55 122.951C55 159.981 85.2208 190 122.5 190C159.779 190 190 159.981 190 122.951C190 98.2245 176.525 76.6239 156.471 65M122.5 122.951V59.4514" stroke="black" stroke-width="20" stroke-linecap="round"/>
<defs>
<clipPath id="clip0_2538_2">
<rect width="245.001" height="245.001" fill="white"/>
</clipPath>
</defs>
</svg>
