<svg width="238" height="238" viewBox="0 0 238 238" fill="none" xmlns="http://www.w3.org/2000/svg">
<path d="M27 27L212.011 212.011" stroke="black" stroke-width="20" stroke-linecap="round"/>
<path fill-rule="evenodd" clip-rule="evenodd" d="M16.9278 235.094C15.0685 236.954 12.5466 237.999 9.91675 238C7.95573 238 6.03885 237.418 4.40845 236.328C2.77806 235.238 1.50734 233.69 0.756944 231.878C0.00654977 230.066 -0.18983 228.073 0.192632 226.149C0.575094 224.226 1.51922 222.459 2.90567 221.072L68.7821 155.235L51.3486 137.187C46.0068 131.842 42.3028 125.083 40.6725 117.704C39.0421 110.326 39.5533 102.635 42.1459 95.5371C44.1498 89.7111 47.5233 84.4708 51.9623 80.2464L65.9775 94.2617C63.6156 96.3946 61.8421 99.1084 60.8388 102.142C59.5123 105.748 59.2472 109.659 60.075 113.411C60.9028 117.164 62.7888 120.6 65.5096 123.314L109.143 168.435C112.53 172.44 116.982 175.404 121.984 176.983C126.986 178.563 132.333 178.693 137.405 177.36C140.11 176.435 142.52 174.822 144.403 172.687L158.421 186.705C154.439 190.92 149.485 194.124 143.97 196.023C139.705 197.526 135.214 198.288 130.692 198.274C117.126 197.881 104.27 192.126 94.9423 182.268L82.5663 169.456L16.9278 235.094ZM166.717 138.433C166.474 137.299 166.207 136.17 165.916 135.045L163.794 124.712C163.392 123.06 163.421 121.332 163.88 119.694C164.338 118.056 165.21 116.564 166.412 115.361L182.149 99.6129C182.77 98.9897 183.61 98.6338 184.49 98.6212C184.798 98.5638 185.117 98.5937 185.41 98.7076C185.702 98.8215 185.957 99.0148 186.146 99.2658C191.127 104.548 197.828 107.881 205.046 108.666C212.263 109.451 219.525 107.637 225.525 103.55C229.046 101.04 231.977 97.7924 234.115 94.0338C236.253 90.2753 237.546 86.0959 237.903 81.7867C238.261 77.4775 237.675 73.1421 236.187 69.0825C234.698 65.0228 232.342 61.3365 229.283 58.2802L180.483 9.46046C175.473 4.32462 168.816 1.11344 161.678 0.38835C154.539 -0.336743 147.373 1.47039 141.432 5.49379C137.91 8.00303 134.978 11.2498 132.839 15.008C130.7 18.7661 129.406 22.9454 129.048 27.2546C128.689 31.5638 129.274 35.8994 130.762 39.9595C132.25 44.0195 134.605 47.7064 137.663 50.7634L138.417 51.517C138.985 52.0892 139.304 52.8627 139.304 53.669C139.304 54.4752 138.985 55.2487 138.417 55.8209L122.55 71.6875C121.333 72.9022 119.821 73.7794 118.162 74.2332C116.504 74.6869 114.756 74.7016 113.09 74.2758L104.988 72.2032C103.067 71.7016 101.132 71.2675 99.1858 70.9014L121.973 93.6886C122.453 93.5821 122.932 93.4635 123.408 93.333C128.382 91.9687 132.917 89.3388 136.572 85.6998L152.439 69.8331C156.72 65.5391 159.125 59.7228 159.125 53.659C159.125 47.5953 156.72 41.779 152.439 37.485L151.685 36.7313C150.659 35.7069 149.869 34.4698 149.372 33.1071C148.876 31.7445 148.684 30.2894 148.811 28.8446C148.937 27.3997 149.379 26.0003 150.106 24.7449C150.832 23.4895 151.825 22.4086 153.014 21.5786C155.13 20.2976 157.623 19.7856 160.073 20.1288C162.523 20.472 164.779 21.6496 166.461 23.4628L215.291 72.2925C216.318 73.3168 217.107 74.554 217.604 75.9166C218.101 77.2793 218.292 78.7343 218.166 80.1792C218.039 81.624 217.597 83.0235 216.871 84.2789C216.144 85.5343 215.151 86.6151 213.962 87.4451C211.823 88.7436 209.298 89.2559 206.822 88.894C204.346 88.532 202.074 87.3183 200.396 85.4618C198.356 83.358 195.915 81.6844 193.217 80.5399C190.519 79.3953 187.619 78.8029 184.688 78.7978C178.506 78.8259 172.577 81.2586 168.157 85.5808L152.429 101.319C148.858 104.892 146.256 109.317 144.868 114.175C144.685 114.813 144.525 115.455 144.386 116.102L166.717 138.433Z" fill="black"/>
</svg>
